<svg width="28" height="28" viewBox="0 0 28 28" fill="none" xmlns="http://www.w3.org/2000/svg">
<path fill-rule="evenodd" clip-rule="evenodd" d="M7.33342 0.666687C3.65152 0.666687 0.666748 3.65146 0.666748 7.33335V20.6667C0.666748 24.3486 3.65152 27.3334 7.33342 27.3334H20.6667C24.3486 27.3334 27.3334 24.3486 27.3334 20.6667V7.33335C27.3334 3.65146 24.3486 0.666687 20.6667 0.666687H7.33342ZM24.6667 14V7.33335C24.6667 5.12422 22.8759 3.33335 20.6667 3.33335H7.33342C5.12428 3.33335 3.33341 5.12422 3.33341 7.33335V18H5.25502L7.24798 14.7615C7.53918 14.2883 8.05502 14 8.61063 14H13.147L16.258 7.25943C16.8108 6.06168 18.4941 6.00988 19.1195 7.17137L22.7965 14H24.6667ZM3.33341 20.6667L5.85107 20.6667C6.40669 20.6667 6.92252 20.3784 7.21372 19.9052L9.20668 16.6667H13.8295C14.4535 16.6667 15.0207 16.3038 15.2822 15.7372L17.7842 10.3162L20.7506 15.8253C21.0297 16.3435 21.5707 16.6667 22.1594 16.6667H24.6667V20.6667C24.6667 22.8758 22.8759 24.6667 20.6667 24.6667H7.33342C5.12428 24.6667 3.33341 22.8758 3.33341 20.6667Z" fill="white"/>
</svg>
