<svg width="22" height="28" viewBox="0 0 22 28" fill="none" xmlns="http://www.w3.org/2000/svg">
<path d="M6.99992 6.00007C6.26354 6.00007 5.66659 6.59702 5.66659 7.3334C5.66659 8.06978 6.26354 8.66674 6.99992 8.66674H9.66659V16.6667H6.99992C6.26354 16.6667 5.66659 17.2637 5.66659 18.0001C5.66659 18.7365 6.26354 19.3334 6.99992 19.3334H14.9999C15.7363 19.3334 16.3333 18.7365 16.3333 18.0001C16.3333 17.2637 15.7363 16.6667 14.9999 16.6667H12.3333V8.66674H14.9999C15.7363 8.66674 16.3333 8.06978 16.3333 7.3334C16.3333 6.59702 15.7363 6.00007 14.9999 6.00007H6.99992Z" fill="white"/>
<path fill-rule="evenodd" clip-rule="evenodd" d="M11.7325 0.822696C11.2537 0.685892 10.7461 0.685892 10.2673 0.822696L2.26733 3.10841C1.12253 3.4355 0.333252 4.48186 0.333252 5.67247V14.6667C0.333252 18.6404 2.35916 21.5662 4.52078 23.5441C6.67272 25.5132 9.05245 26.6361 10.0426 27.0537C10.6577 27.3132 11.3422 27.3132 11.9572 27.0537C12.9474 26.6361 15.3271 25.5132 17.4791 23.5441C19.6407 21.5662 21.6666 18.6404 21.6666 14.6667V5.67247C21.6666 4.48186 20.8773 3.4355 19.7325 3.10841L11.7325 0.822696ZM2.99992 5.67247L10.9999 3.38676L18.9999 5.67247L18.9999 14.6667C18.9999 17.6443 17.5025 19.9082 15.6789 21.5768C13.8997 23.2048 11.9001 24.1765 10.9999 24.563C10.0998 24.1765 8.10012 23.2048 6.32096 21.5768C4.49736 19.9082 2.99992 17.6443 2.99992 14.6667L2.99992 5.67247Z" fill="white"/>
</svg>
