<svg width="26" height="24" viewBox="0 0 26 24" fill="none" xmlns="http://www.w3.org/2000/svg">
<path fill-rule="evenodd" clip-rule="evenodd" d="M11.9999 2.66667C9.79079 2.66667 7.99993 4.45753 7.99993 6.66667C7.99993 8.87581 9.79079 10.6667 11.9999 10.6667C14.2091 10.6667 15.9999 8.87581 15.9999 6.66667C15.9999 4.45753 14.2091 2.66667 11.9999 2.66667ZM5.33326 6.66667C5.33326 2.98477 8.31803 0 11.9999 0C15.6818 0 18.6666 2.98477 18.6666 6.66667C18.6666 10.3486 15.6818 13.3333 11.9999 13.3333C8.31803 13.3333 5.33326 10.3486 5.33326 6.66667Z" fill="white"/>
<path fill-rule="evenodd" clip-rule="evenodd" d="M2.6527 21.5253L2.65416 21.5159C2.65584 21.5054 2.65893 21.4865 2.66362 21.4599C2.67301 21.4066 2.6888 21.3224 2.71252 21.2117C2.76003 20.9899 2.83891 20.6641 2.96114 20.2692C3.20698 19.475 3.62046 18.4263 4.28816 17.3877C5.59658 15.3524 7.87812 13.3333 11.9999 13.3333C14.4999 13.3333 16.2898 14.0728 17.5927 15.0619L19.2052 12.9381C17.4323 11.592 15.0745 10.6667 11.9999 10.6667C6.7884 10.6667 3.73661 13.3143 2.04502 15.9457C1.21272 17.2403 0.70954 18.525 0.413711 19.4808C0.265104 19.9609 0.166906 20.3642 0.105043 20.6529C0.0740744 20.7974 0.0521004 20.9137 0.0374039 20.9972C0.0300528 21.0389 0.0245137 21.0724 0.0205736 21.0972L0.0158331 21.1278L0.0143105 21.138L0.0137524 21.1418L0.013523 21.1434C0.013422 21.1441 0.0133263 21.1448 1.33326 21.3333L0.0133263 21.1448C-0.0908135 21.8738 0.415719 22.5491 1.1447 22.6533C1.87253 22.7572 2.54693 22.2524 2.6527 21.5253Z" fill="white"/>
<path d="M24.9807 15.0967C25.4795 15.6383 25.4449 16.4818 24.9032 16.9807L18.1168 23.2314C17.3511 23.9366 16.1725 23.9366 15.4069 23.2314L12.43 20.4895C11.8883 19.9906 11.8537 19.1471 12.3525 18.6055C12.8514 18.0638 13.6949 18.0292 14.2366 18.528L16.7618 20.854L23.0966 15.0193C23.6383 14.5204 24.4818 14.5551 24.9807 15.0967Z" fill="white"/>
</svg>
